<svg width="227" height="76" viewBox="0 0 227 76" fill="none" xmlns="http://www.w3.org/2000/svg">
<g clip-path="url(#clip0_2_65)">
<path d="M208.923 0.000247H18.0871C17.3914 0.000247 16.7042 0.000247 16.0104 0.004047C15.4296 0.007847 14.8535 0.018886 14.2672 0.028177C12.9934 0.0431904 11.7226 0.155432 10.4658 0.363926C9.21082 0.576959 7.99514 0.978587 6.85989 1.55523C5.72602 2.13674 4.68998 2.89237 3.78934 3.79468C2.88398 4.69446 2.12929 5.73448 1.55429 6.87475C0.977702 8.01275 0.577896 9.23223 0.368678 10.4911C0.15747 11.7483 0.0438171 13.02 0.0287392 14.2949C0.0111353 14.8774 0.00927622 15.4619 0 16.0445V59.9616C0.00927622 60.5515 0.0111353 61.1231 0.0287392 61.7132C0.0438217 62.988 0.157474 64.2596 0.368678 65.5168C0.577318 66.7764 0.977148 67.9965 1.55429 69.135C2.12903 70.2716 2.88382 71.3074 3.78934 72.2021C4.68657 73.1085 5.72328 73.8646 6.85989 74.4417C7.99513 75.0199 9.21068 75.4239 10.4658 75.6402C11.7228 75.847 12.9935 75.9593 14.2672 75.9761C14.8535 75.989 15.4296 75.9964 16.0104 75.9964C16.7042 76.0002 17.3915 76.0002 18.0871 76.0002H208.923C209.605 76.0002 210.298 76.0002 210.979 75.9964C211.557 75.9964 212.15 75.989 212.728 75.9761C214 75.9602 215.268 75.8479 216.522 75.6402C217.781 75.4224 219.001 75.0184 220.142 74.4417C221.278 73.8643 222.313 73.1082 223.21 72.2021C224.113 71.3039 224.869 70.2688 225.451 69.135C226.024 67.9957 226.42 66.7756 226.626 65.5168C226.837 64.2595 226.955 62.9881 226.978 61.7132C226.985 61.1231 226.985 60.5515 226.985 59.9616C227 59.2713 227 58.5848 227 57.8834V18.1189C227 17.4231 227 16.7329 226.985 16.0445C226.985 15.4619 226.985 14.8774 226.978 14.2948C226.955 13.0198 226.837 11.7484 226.626 10.491C226.42 9.23288 226.024 8.0135 225.451 6.87467C224.28 4.58912 222.424 2.7287 220.142 1.55505C219.001 0.979825 217.781 0.578304 216.522 0.363755C215.268 0.154342 214 0.0420618 212.728 0.027911C212.15 0.018639 211.557 0.007505 210.979 0.0038C210.298 0 209.605 0.000247 208.923 0.000247Z" fill="#A6A6A6"/>
<path d="M16.0197 74.3376C15.4417 74.3376 14.8777 74.3302 14.3042 74.3173C13.1163 74.3018 11.9312 74.1982 10.7585 74.0074C9.66508 73.8188 8.60584 73.4679 7.61572 72.9664C6.63468 72.469 5.7399 71.8168 4.96564 71.0348C4.18018 70.262 3.52625 69.3658 3.02976 68.3815C2.5278 67.3908 2.18041 66.3289 1.9997 65.2328C1.80455 64.055 1.69896 62.8641 1.68385 61.6703C1.67183 61.2696 1.65608 59.9354 1.65608 59.9354V16.0443C1.65608 16.0443 1.67285 14.7307 1.68395 14.3447C1.69841 13.1528 1.80339 11.9637 1.99796 10.7878C2.179 9.68867 2.52666 8.62372 3.02889 7.62979C3.52355 6.64619 4.17385 5.74923 4.95458 4.97369C5.73444 4.19078 6.63208 3.53525 7.61479 3.031C8.60263 2.53108 9.65988 2.18269 10.7511 1.99751C11.9276 1.80479 13.1169 1.70059 14.3089 1.6858L16.0206 1.6626H210.97L212.702 1.68673C213.884 1.70079 215.062 1.80405 216.228 1.99565C217.33 2.18315 218.398 2.53397 219.397 3.03656C221.366 4.05277 222.968 5.66051 223.979 7.63443C224.473 8.6215 224.815 9.67776 224.994 10.7674C225.191 11.953 225.301 13.1514 225.323 14.3531C225.329 14.8912 225.329 15.4691 225.329 16.0443C225.344 16.7568 225.344 17.435 225.344 18.1187V57.8832C225.344 58.5735 225.344 59.247 225.329 59.9261C225.329 60.544 225.329 61.11 225.322 61.6925C225.299 62.8728 225.191 64.0498 224.997 65.2142C224.82 66.3182 224.475 67.3884 223.973 68.3872C223.473 69.3608 222.823 70.2493 222.046 71.02C221.271 71.8062 220.375 72.4622 219.392 72.9628C218.395 73.4681 217.329 73.8203 216.228 74.0074C215.055 74.1992 213.87 74.3028 212.682 74.3173C212.126 74.3302 211.544 74.3376 210.979 74.3376L208.923 74.3414L16.0197 74.3376Z" fill="black"/>
<path d="M46.986 38.5709C47.0064 36.9851 47.427 35.4301 48.2086 34.0508C48.9902 32.6715 50.1074 31.5126 51.4563 30.682C50.5994 29.4562 49.4689 28.4474 48.1546 27.7358C46.8404 27.0241 45.3785 26.6292 43.8852 26.5824C40.6997 26.2475 37.6115 28.4916 35.9883 28.4916C34.3336 28.4916 31.8343 26.6157 29.143 26.6711C27.4022 26.7275 25.7057 27.2345 24.2187 28.1428C22.7317 29.0511 21.5049 30.3297 20.658 31.8541C16.9892 38.2161 19.7258 47.5661 23.2402 52.7086C24.9985 55.2268 27.0534 58.0396 29.7423 57.9399C32.3735 57.8306 33.3562 56.2594 36.5323 56.2594C39.679 56.2594 40.601 57.9399 43.3444 57.8765C46.1678 57.8306 47.9467 55.3471 49.6433 52.8051C50.9067 51.0108 51.8788 49.0278 52.5237 46.9293C50.8834 46.2345 49.4836 45.0713 48.4988 43.585C47.5141 42.0986 46.9879 40.3548 46.986 38.5709Z" fill="white"/>
<path d="M41.8042 23.2005C43.3436 21.3495 44.102 18.9704 43.9184 16.5684C41.5664 16.8158 39.3939 17.9416 37.8337 19.7216C37.0708 20.5912 36.4865 21.6028 36.1143 22.6987C35.742 23.7945 35.589 24.9531 35.6641 26.1083C36.8405 26.1204 38.0043 25.865 39.0678 25.3613C40.1314 24.8577 41.067 24.1189 41.8042 23.2005Z" fill="white"/>
<path d="M80.2464 51.5651H71.2673L69.111 57.9423H65.3077L73.8127 34.3481H77.7641L86.269 57.9423H82.4009L80.2464 51.5651ZM72.1972 48.6223H79.3147L75.806 38.2725H75.7078L72.1972 48.6223Z" fill="white"/>
<path d="M104.637 49.3423C104.637 54.6879 101.78 58.1223 97.4693 58.1223C96.3773 58.1795 95.2913 57.9276 94.3356 57.3953C93.3799 56.8631 92.5932 56.072 92.0655 55.1127H91.9839V63.633H88.4586V40.7403H91.871V43.6014H91.9358C92.4878 42.6467 93.2878 41.8598 94.2507 41.3243C95.2137 40.7888 96.3036 40.5247 97.4044 40.5603C101.763 40.5603 104.637 44.0115 104.637 49.3423ZM101.013 49.3423C101.013 45.8596 99.2162 43.5699 96.4745 43.5699C93.7809 43.5699 91.9691 45.9078 91.9691 49.3423C91.9691 52.8083 93.7809 55.1295 96.4745 55.1295C99.2162 55.1295 101.013 52.8565 101.013 49.3423Z" fill="white"/>
<path d="M123.54 49.3422C123.54 54.6878 120.683 58.1223 116.372 58.1223C115.28 58.1795 114.194 57.9276 113.239 57.3953C112.283 56.863 111.496 56.072 110.969 55.1127H110.887V63.633H107.362V40.7403H110.774V43.6014H110.839C111.391 42.6467 112.191 41.8598 113.154 41.3243C114.117 40.7888 115.207 40.5247 116.307 40.5603C120.666 40.5603 123.54 44.0115 123.54 49.3422ZM119.916 49.3422C119.916 45.8595 118.119 43.5699 115.378 43.5699C112.684 43.5699 110.872 45.9078 110.872 49.3422C110.872 52.8083 112.684 55.1294 115.378 55.1294C118.119 55.1294 119.916 52.8565 119.916 49.3422Z" fill="white"/>
<path d="M136.033 51.3683C136.294 53.708 138.564 55.2443 141.665 55.2443C144.636 55.2443 146.774 53.7079 146.774 51.5983C146.774 49.7669 145.485 48.6704 142.432 47.9189L139.379 47.1822C135.053 46.1358 133.045 44.1096 133.045 40.8217C133.045 36.7508 136.587 33.9546 141.617 33.9546C146.594 33.9546 150.007 36.7508 150.122 40.8217H146.563C146.35 38.4671 144.406 37.0458 141.567 37.0458C138.727 37.0458 136.783 38.4838 136.783 40.5768C136.783 42.2448 138.025 43.2264 141.061 43.9778L143.656 44.6161C148.489 45.7609 150.498 47.7055 150.498 51.1566C150.498 55.5707 146.987 58.3354 141.404 58.3354C136.179 58.3354 132.652 55.6357 132.424 51.3681L136.033 51.3683Z" fill="white"/>
<path d="M158.106 36.6694V40.7403H161.372V43.5365H158.106V53.0198C158.106 54.4931 158.76 55.1796 160.195 55.1796C160.583 55.1728 160.97 55.1455 161.355 55.0979V57.8774C160.71 57.9982 160.054 58.0529 159.397 58.0407C155.92 58.0407 154.564 56.7326 154.564 53.3964V43.5365H152.067V40.7403H154.564V36.6694H158.106Z" fill="white"/>
<path d="M163.263 49.3423C163.263 43.9299 166.446 40.5288 171.409 40.5288C176.388 40.5288 179.556 43.9298 179.556 49.3423C179.556 54.7695 176.405 58.1558 171.409 58.1558C166.414 58.1558 163.263 54.7695 163.263 49.3423ZM175.964 49.3423C175.964 45.6295 174.265 43.4382 171.409 43.4382C168.552 43.4382 166.855 45.6462 166.855 49.3423C166.855 53.0699 168.552 55.2445 171.409 55.2445C174.265 55.2445 175.964 53.0699 175.964 49.3423Z" fill="white"/>
<path d="M182.463 40.7401H185.825V43.668H185.907C186.134 42.7536 186.669 41.9455 187.421 41.3795C188.174 40.8135 189.098 40.5242 190.038 40.5601C190.444 40.5587 190.849 40.6029 191.246 40.6919V43.9946C190.733 43.8376 190.198 43.7656 189.662 43.7812C189.149 43.7604 188.639 43.8509 188.165 44.0463C187.691 44.2418 187.265 44.5377 186.916 44.9137C186.567 45.2897 186.303 45.7369 186.143 46.2246C185.983 46.7122 185.93 47.2288 185.988 47.7389V57.9422H182.463L182.463 40.7401Z" fill="white"/>
<path d="M207.499 52.8899C207.025 56.0127 203.989 58.1558 200.104 58.1558C195.108 58.1558 192.007 54.8029 192.007 49.4239C192.007 44.0282 195.125 40.5288 199.956 40.5288C204.708 40.5288 207.696 43.7981 207.696 49.0139V50.2236H195.566V50.437C195.51 51.0701 195.589 51.7079 195.798 52.3079C196.007 52.908 196.341 53.4567 196.778 53.9176C197.215 54.3784 197.745 54.7409 198.332 54.9808C198.92 55.2208 199.552 55.3328 200.186 55.3095C201.019 55.3876 201.855 55.1944 202.569 54.7585C203.284 54.3225 203.839 53.6672 204.152 52.8899L207.499 52.8899ZM195.582 47.7559H204.169C204.2 47.1866 204.114 46.617 203.916 46.0827C203.717 45.5484 203.41 45.061 203.015 44.651C202.619 44.2411 202.143 43.9174 201.617 43.7004C201.091 43.4834 200.525 43.3777 199.956 43.3899C199.382 43.3865 198.813 43.497 198.282 43.715C197.75 43.933 197.268 44.2542 196.861 44.6601C196.454 45.066 196.132 45.5486 195.912 46.0799C195.693 46.6113 195.581 47.1808 195.582 47.7559Z" fill="white"/>
<path d="M71.7554 16.589C72.4945 16.5359 73.2362 16.6477 73.9269 16.9165C74.6176 17.1852 75.2402 17.6041 75.7496 18.143C76.2591 18.6819 76.6429 19.3273 76.8732 20.0327C77.1035 20.7381 77.1746 21.486 77.0814 22.2222C77.0814 25.8441 75.127 27.926 71.7554 27.926H67.6669V16.589H71.7554ZM69.425 26.3227H71.5591C72.0872 26.3544 72.6157 26.2676 73.1061 26.0689C73.5966 25.8701 74.0366 25.5643 74.3942 25.1737C74.7517 24.7831 75.0179 24.3176 75.1731 23.811C75.3284 23.3045 75.369 22.7696 75.2919 22.2453C75.3634 21.7232 75.3187 21.1916 75.1611 20.6887C75.0034 20.1859 74.7366 19.7242 74.3799 19.3367C74.0231 18.9492 73.5852 18.6456 73.0975 18.4475C72.6099 18.2495 72.0845 18.1619 71.5591 18.1911H69.425V26.3227Z" fill="white"/>
<path d="M79.0673 23.6442C79.0136 23.082 79.0778 22.5147 79.2558 21.9787C79.4338 21.4428 79.7217 20.9501 80.101 20.5321C80.4803 20.1141 80.9426 19.7802 81.4583 19.5516C81.974 19.3231 82.5317 19.2051 83.0956 19.2051C83.6595 19.2051 84.2172 19.3231 84.7329 19.5516C85.2486 19.7802 85.7109 20.1141 86.0902 20.5321C86.4695 20.9501 86.7574 21.4428 86.9354 21.9787C87.1134 22.5147 87.1776 23.082 87.1239 23.6442C87.1786 24.207 87.1152 24.7751 86.9376 25.3119C86.7601 25.8487 86.4724 26.3423 86.093 26.7611C85.7136 27.1799 85.251 27.5146 84.7347 27.7436C84.2185 27.9726 83.6602 28.0909 83.0956 28.0909C82.531 28.0909 81.9727 27.9726 81.4565 27.7436C80.9403 27.5146 80.4776 27.1799 80.0982 26.7611C79.7188 26.3423 79.4311 25.8487 79.2536 25.3119C79.076 24.7751 79.0126 24.207 79.0673 23.6442ZM85.3899 23.6442C85.3899 21.7897 84.5581 20.7051 83.0984 20.7051C81.633 20.7051 80.8087 21.7897 80.8087 23.6442C80.8087 25.5136 81.6331 26.5898 83.0984 26.5898C84.5582 26.5897 85.3899 25.5062 85.3899 23.6442Z" fill="white"/>
<path d="M97.8333 27.9257H96.0845L94.3191 21.6245H94.1857L92.4277 27.9257H90.6956L88.341 19.3701H90.0509L91.5811 25.8985H91.707L93.4632 19.3701H95.0805L96.8367 25.8985H96.97L98.4928 19.3701H100.179L97.8333 27.9257Z" fill="white"/>
<path d="M102.159 19.3703H103.782V20.7295H103.908C104.121 20.2413 104.482 19.8321 104.939 19.5589C105.396 19.2857 105.926 19.162 106.457 19.2052C106.872 19.1739 107.29 19.2367 107.678 19.3889C108.066 19.541 108.415 19.7787 108.699 20.0843C108.983 20.3899 109.194 20.7556 109.318 21.1543C109.442 21.5529 109.474 21.9744 109.413 22.3873V27.9258H107.728V22.8113C107.728 21.4364 107.131 20.7527 105.884 20.7527C105.602 20.7395 105.32 20.7876 105.059 20.8937C104.797 20.9998 104.561 21.1613 104.367 21.3672C104.173 21.5732 104.026 21.8186 103.936 22.0868C103.846 22.3549 103.815 22.6394 103.845 22.9208V27.9259H102.159L102.159 19.3703Z" fill="white"/>
<path d="M112.1 16.0303H113.785V27.9257H112.1V16.0303Z" fill="white"/>
<path d="M116.129 23.6444C116.075 23.0821 116.139 22.5148 116.317 21.9788C116.495 21.4429 116.783 20.9501 117.163 20.5321C117.542 20.1141 118.004 19.7802 118.52 19.5517C119.036 19.3231 119.594 19.2051 120.158 19.2051C120.721 19.2051 121.279 19.3231 121.795 19.5517C122.311 19.7802 122.773 20.1141 123.152 20.5321C123.532 20.9501 123.82 21.4429 123.998 21.9788C124.176 22.5148 124.24 23.0821 124.186 23.6444C124.241 24.2072 124.177 24.7753 124 25.3121C123.822 25.8489 123.534 26.3425 123.155 26.7613C122.776 27.1801 122.313 27.5147 121.797 27.7437C121.28 27.9727 120.722 28.091 120.158 28.091C119.593 28.091 119.035 27.9727 118.518 27.7437C118.002 27.5147 117.539 27.1801 117.16 26.7613C116.781 26.3425 116.493 25.8489 116.315 25.3121C116.138 24.7753 116.074 24.2072 116.129 23.6444ZM122.451 23.6444C122.451 21.7898 121.62 20.7053 120.16 20.7053C118.694 20.7053 117.87 21.7898 117.87 23.6444C117.87 25.5138 118.695 26.5899 120.16 26.5899C121.62 26.5899 122.451 25.5063 122.451 23.6444Z" fill="white"/>
<path d="M125.961 25.5062C125.961 23.9662 127.106 23.0784 129.138 22.9522L131.452 22.8186V22.0801C131.452 21.1765 130.855 20.6663 129.703 20.6663C128.762 20.6663 128.11 21.0123 127.923 21.6172H126.291C126.463 20.1476 127.843 19.2051 129.781 19.2051C131.922 19.2051 133.13 20.2729 133.13 22.0801V27.9258H131.507V26.7234H131.374C131.103 27.1547 130.723 27.5063 130.272 27.7423C129.822 27.9783 129.316 28.0903 128.808 28.0667C128.45 28.1041 128.087 28.0658 127.744 27.9542C127.401 27.8427 127.086 27.6605 126.817 27.4192C126.549 27.178 126.334 26.8831 126.187 26.5536C126.039 26.2241 125.962 25.8673 125.961 25.5062ZM131.452 24.7752V24.0599L129.366 24.1935C128.19 24.2723 127.656 24.6731 127.656 25.4274C127.656 26.1974 128.323 26.6455 129.24 26.6455C129.509 26.6727 129.78 26.6455 130.038 26.5656C130.296 26.4856 130.535 26.3545 130.742 26.18C130.948 26.0055 131.117 25.7912 131.239 25.5498C131.361 25.3085 131.434 25.0451 131.452 24.7752Z" fill="white"/>
<path d="M135.346 23.6442C135.346 20.9408 136.733 19.2282 138.892 19.2282C139.425 19.2036 139.955 19.3316 140.419 19.5974C140.883 19.8632 141.262 20.2558 141.511 20.7292H141.637V16.0303H143.323V27.9257H141.707V26.574H141.574C141.305 27.0442 140.913 27.4319 140.441 27.695C139.968 27.9581 139.432 28.0866 138.892 28.0667C136.719 28.0668 135.346 26.3541 135.346 23.6442ZM137.087 23.6442C137.087 25.4589 137.941 26.5508 139.37 26.5508C140.79 26.5508 141.669 25.4431 141.669 23.6516C141.669 21.8685 140.781 20.745 139.37 20.745C137.95 20.745 137.087 21.8444 137.087 23.6442Z" fill="white"/>
<path d="M150.297 23.6442C150.244 23.082 150.308 22.5147 150.486 21.9787C150.664 21.4428 150.952 20.9501 151.331 20.5321C151.71 20.1141 152.173 19.7802 152.688 19.5516C153.204 19.3231 153.762 19.2051 154.326 19.2051C154.89 19.2051 155.447 19.3231 155.963 19.5516C156.479 19.7802 156.941 20.1141 157.32 20.5321C157.7 20.9501 157.988 21.4428 158.166 21.9787C158.344 22.5147 158.408 23.082 158.354 23.6442C158.409 24.207 158.345 24.7751 158.168 25.3119C157.99 25.8487 157.703 26.3423 157.323 26.7611C156.944 27.1799 156.481 27.5146 155.965 27.7436C155.449 27.9726 154.89 28.0909 154.326 28.0909C153.761 28.0909 153.203 27.9726 152.687 27.7436C152.17 27.5146 151.708 27.1799 151.328 26.7611C150.949 26.3423 150.661 25.8487 150.484 25.3119C150.306 24.7751 150.243 24.207 150.297 23.6442ZM156.62 23.6442C156.62 21.7897 155.788 20.7051 154.329 20.7051C152.863 20.7051 152.039 21.7897 152.039 23.6442C152.039 25.5136 152.863 26.5898 154.329 26.5898C155.788 26.5897 156.62 25.5062 156.62 23.6442Z" fill="white"/>
<path d="M160.616 19.3703H162.239V20.7295H162.365C162.579 20.2413 162.939 19.8321 163.396 19.5589C163.853 19.2857 164.383 19.162 164.914 19.2052C165.33 19.1739 165.747 19.2367 166.135 19.3889C166.523 19.541 166.872 19.7787 167.156 20.0843C167.44 20.3899 167.652 20.7556 167.775 21.1543C167.899 21.5529 167.931 21.9744 167.87 22.3873V27.9258H166.185V22.8113C166.185 21.4364 165.588 20.7527 164.341 20.7527C164.059 20.7395 163.778 20.7876 163.516 20.8937C163.254 20.9998 163.018 21.1613 162.824 21.3672C162.63 21.5732 162.483 21.8186 162.393 22.0868C162.303 22.3549 162.272 22.6394 162.302 22.9208V27.9259H160.616V19.3703Z" fill="white"/>
<path d="M177.396 17.2402V19.4093H179.247V20.8315H177.396V25.2308C177.396 26.127 177.765 26.5194 178.604 26.5194C178.819 26.5187 179.033 26.5057 179.247 26.4805V27.8869C178.944 27.9411 178.637 27.97 178.33 27.9732C176.455 27.9732 175.708 27.3126 175.708 25.6631V20.8314H174.352V19.4092H175.708V17.2402H177.396Z" fill="white"/>
<path d="M181.549 16.0303H183.22V20.745H183.354C183.578 20.2523 183.948 19.8408 184.414 19.5665C184.88 19.2923 185.42 19.1686 185.958 19.2124C186.372 19.1899 186.785 19.259 187.169 19.4149C187.553 19.5708 187.897 19.8096 188.178 20.1142C188.459 20.4188 188.67 20.7818 188.794 21.1773C188.919 21.5727 188.955 21.9909 188.9 22.402V27.9257H187.213V22.8185C187.213 21.4519 186.577 20.7598 185.386 20.7598C185.096 20.736 184.805 20.7759 184.532 20.8767C184.259 20.9775 184.012 21.1368 183.807 21.3434C183.602 21.55 183.445 21.799 183.346 22.0728C183.247 22.3467 183.21 22.6389 183.235 22.9289V27.9257H181.55L181.549 16.0303Z" fill="white"/>
<path d="M198.73 25.6159C198.501 26.3978 198.004 27.0742 197.328 27.5266C196.651 27.9791 195.837 28.1789 195.028 28.091C194.466 28.1059 193.906 27.998 193.389 27.7747C192.872 27.5514 192.41 27.2181 192.035 26.7979C191.659 26.3777 191.38 25.8808 191.215 25.3415C191.051 24.8023 191.006 24.2336 191.083 23.675C191.008 23.1148 191.054 22.5449 191.218 22.004C191.382 21.4631 191.66 20.9639 192.033 20.54C192.407 20.1162 192.867 19.7777 193.382 19.5474C193.898 19.3171 194.457 19.2004 195.021 19.2052C197.398 19.2052 198.832 20.8316 198.832 23.5182V24.1074H192.8V24.202C192.773 24.516 192.813 24.832 192.915 25.1298C193.018 25.4277 193.182 25.7007 193.396 25.9315C193.61 26.1622 193.87 26.3456 194.159 26.4699C194.448 26.5941 194.76 26.6565 195.075 26.653C195.478 26.7015 195.886 26.6288 196.248 26.4441C196.61 26.2594 196.909 25.9711 197.107 25.6158L198.73 25.6159ZM192.8 22.8586H197.114C197.135 22.5715 197.097 22.2831 197 22.0119C196.903 21.7407 196.751 21.4928 196.553 21.2841C196.355 21.0754 196.116 20.9104 195.85 20.7999C195.585 20.6894 195.299 20.6357 195.012 20.6423C194.72 20.6386 194.431 20.6934 194.161 20.8035C193.891 20.9136 193.645 21.0768 193.439 21.2833C193.233 21.4899 193.07 21.7357 192.96 22.0062C192.851 22.2768 192.796 22.5666 192.8 22.8586Z" fill="white"/>
</g>
<defs>
<clipPath id="clip0_2_65">
<rect width="227" height="76" fill="white"/>
</clipPath>
</defs>
</svg>
